<svg xmlns="http://www.w3.org/2000/svg" width="32" height="32" fill="none" viewBox="0 0 24 24"><path fill="#fff" fill-rule="evenodd" d="M12.25 4.414a3.75 3.75 0 1 0 0 7.5 3.75 3.75 0 0 0 0-7.5M7 8.164a5.25 5.25 0 1 1 10.5 0 5.25 5.25 0 0 1-10.5 0" clip-rule="evenodd"></path><path fill="#fff" fill-rule="evenodd" d="M19.19 16.539c-3.721-4.094-10.159-4.094-13.88 0a4.07 4.07 0 0 0-1.06 2.74v1.017c0 .203.165.368.368.368h15.264a.37.37 0 0 0 .368-.368v-1.017c0-1.014-.378-1.99-1.06-2.74M4.2 15.529c4.316-4.748 11.784-4.748 16.1 0a5.57 5.57 0 0 1 1.45 3.75v1.017a1.87 1.87 0 0 1-1.868 1.868H4.618a1.87 1.87 0 0 1-1.868-1.868v-1.017c0-1.387.517-2.723 1.45-3.75" clip-rule="evenodd"></path></svg>