<svg xmlns="http://www.w3.org/2000/svg" width="32" height="32" fill="none" viewBox="0 0 24 24"><path fill="#fff" d="M2.5 2.25a.75.75 0 0 0 0 1.5h1.78a.25.25 0 0 1 .236.17l3.317 9.95a2.75 2.75 0 0 0 2.608 1.88h7.173a2.75 2.75 0 0 0 2.575-1.784l1.753-4.676a2.25 2.25 0 0 0-2.107-3.04H9.5a.75.75 0 0 0 0 1.5h10.336a.75.75 0 0 1 .702 1.013l-1.754 4.676a1.25 1.25 0 0 1-1.17.811h-7.173a1.25 1.25 0 0 1-1.185-.855L5.939 3.447A1.75 1.75 0 0 0 4.28 2.25z"></path><path fill="#fff" fill-rule="evenodd" d="M10 22a2.5 2.5 0 1 0 0-5 2.5 2.5 0 0 0 0 5m0-1.5a1 1 0 1 0 0-2 1 1 0 0 0 0 2M18 22a2.5 2.5 0 1 0 0-5 2.5 2.5 0 0 0 0 5m0-1.5a1 1 0 1 0 0-2 1 1 0 0 0 0 2" clip-rule="evenodd"></path></svg>